<?xml version="1.0" encoding="utf-8"?>
<!-- Generator: Adobe Illustrator 24.1.2, SVG Export Plug-In . SVG Version: 6.00 Build 0)  -->
<svg version="1.1"
	 id="svg14" inkscape:version="0.92.3 (2405546, 2018-03-11)" sodipodi:docname="OGLvitalMid.svg" xmlns:cc="http://creativecommons.org/ns#" xmlns:dc="http://purl.org/dc/elements/1.1/" xmlns:inkscape="http://www.inkscape.org/namespaces/inkscape" xmlns:rdf="http://www.w3.org/1999/02/22-rdf-syntax-ns#" xmlns:sodipodi="http://sodipodi.sourceforge.net/DTD/sodipodi-0.dtd" xmlns:svg="http://www.w3.org/2000/svg"
	 xmlns="http://www.w3.org/2000/svg" xmlns:xlink="http://www.w3.org/1999/xlink" x="0px" y="0px" viewBox="0 0 164.9 49.7"
	 style="enable-background:new 0 0 164.9 49.7;" xml:space="preserve">
<style type="text/css">
	.st0{fill:#1A1A1A;}
	.st1{fill:#333333;}
</style>
<sodipodi:namedview  bordercolor="#666666" borderopacity="1" gridtolerance="10" guidetolerance="10" id="namedview16" inkscape:current-layer="svg14" inkscape:pageopacity="0" inkscape:pageshadow="2" inkscape:window-height="480" inkscape:window-width="640" objecttolerance="10" pagecolor="#ffffff" showgrid="false">
	</sodipodi:namedview>
<g id="Layer_2">
	<g id="Layer_1-2">
		<path id="path8" class="st0" d="M161.9,0.5c0,0-2.1,4-8.9,0H12c-6.8,4-8.9,0-8.9,0H0.5v48.7h2.6c0,0,2.1-4,8.9,0h141
			c6.8-4,8.9,0,8.9,0h2.6V0.5H161.9z"/>
		<path id="path10" class="st1" d="M163.9,36.4c-0.6-4.1-0.9-8.3-0.9-12.4v1.7c0.1-4.2,0.4-8.3,1-12.4L163.9,36.4z M163.9,48.7h-1.8
			c-0.8-1-1.9-1.6-3.1-1.7c-0.2-0.4-0.8-0.6-1.2-0.4c-0.2,0.1-0.3,0.2-0.4,0.4c-1.6,0.3-3.2,0.8-4.6,1.7H12.1
			c-1.4-0.9-3-1.4-4.6-1.7c-0.2-0.4-0.8-0.6-1.2-0.4C6.2,46.7,6,46.8,5.9,47c-1.2,0.1-2.4,0.7-3.1,1.7H1v-9
			C1.9,34.5,2.4,29.3,2.5,24v1.7C2.4,20.5,1.9,15.2,1,10V1h1.8c0.8,1,1.9,1.6,3.1,1.7c0.2,0.4,0.8,0.6,1.2,0.4
			C7.3,3,7.5,2.9,7.5,2.7c1.6-0.3,3.2-0.8,4.6-1.7h140.7c1.4,0.9,3,1.4,4.6,1.7c0.2,0.4,0.8,0.6,1.2,0.4c0.2-0.1,0.3-0.2,0.4-0.4
			c1.2-0.1,2.4-0.7,3.1-1.7h1.8v9c-0.9,5.2-1.4,10.4-1.5,15.7V24c0.1,5.3,0.6,10.5,1.5,15.7L163.9,48.7L163.9,48.7z M1,13.3
			c0.6,4.1,0.9,8.3,1,12.4V24c-0.1,4.2-0.4,8.3-1,12.4V13.3z M161.6,0l-0.1,0.3c-0.6,0.8-1.5,1.4-2.5,1.5c-0.3-0.4-0.8-0.5-1.2-0.2
			c-0.1,0.1-0.1,0.1-0.2,0.2c-1.5-0.3-3-0.8-4.3-1.6L153.1,0H11.9l-0.1,0.1C10.4,0.9,9,1.4,7.4,1.7C7.1,1.3,6.6,1.2,6.2,1.5
			C6.1,1.6,6.1,1.6,6,1.7C5,1.6,4.1,1.1,3.5,0.3L3.4,0H0v49.7h3.4l0.1-0.3C4.1,48.6,5,48.1,6,48c0.2,0.2,0.4,0.4,0.7,0.4
			c0.3,0,0.5-0.1,0.7-0.4c1.5,0.2,3,0.8,4.3,1.6l0.1,0.1H153l0.1-0.1c1.3-0.8,2.8-1.4,4.3-1.6c0.2,0.2,0.4,0.3,0.7,0.3
			s0.6-0.1,0.7-0.4c1,0.1,1.9,0.6,2.5,1.4l0.1,0.3h3.4V0H161.6z"/>
	</g>
</g>
</svg>
