<?xml version="1.0" encoding="utf-8"?>
<!-- Generator: Adobe Illustrator 24.1.2, SVG Export Plug-In . SVG Version: 6.00 Build 0)  -->
<svg version="1.1"
	 id="svg14" inkscape:version="0.92.3 (2405546, 2018-03-11)" sodipodi:docname="OGLvitalTop.svg" xmlns:cc="http://creativecommons.org/ns#" xmlns:dc="http://purl.org/dc/elements/1.1/" xmlns:inkscape="http://www.inkscape.org/namespaces/inkscape" xmlns:rdf="http://www.w3.org/1999/02/22-rdf-syntax-ns#" xmlns:sodipodi="http://sodipodi.sourceforge.net/DTD/sodipodi-0.dtd" xmlns:svg="http://www.w3.org/2000/svg"
	 xmlns="http://www.w3.org/2000/svg" xmlns:xlink="http://www.w3.org/1999/xlink" x="0px" y="0px" viewBox="0 0 164.9 63.9"
	 style="enable-background:new 0 0 164.9 63.9;" xml:space="preserve">
<style type="text/css">
	.st0{fill:#1A1A1A;}
	.st1{fill:#333333;}
</style>
<sodipodi:namedview  bordercolor="#666666" borderopacity="1" gridtolerance="10" guidetolerance="10" id="namedview16" inkscape:current-layer="svg14" inkscape:pageopacity="0" inkscape:pageshadow="2" inkscape:window-height="480" inkscape:window-width="640" objecttolerance="10" pagecolor="#ffffff" showgrid="false">
	</sodipodi:namedview>
<g id="Layer_2">
	<g id="Layer_1-2">
		<path id="path8" class="st0" d="M160,0.5H5C5,3,0.5,4.4,0.5,4.4v59h2.6c0,0,2.1-4,8.9,0h141c6.8-4,8.9,0,8.9,0h2.6v-59
			C164.5,4.4,160,3,160,0.5"/>
		<path id="path10" class="st1" d="M162.1,62.9c-0.8-1-1.9-1.6-3.1-1.7c-0.2-0.4-0.8-0.6-1.2-0.4c-0.2,0.1-0.3,0.2-0.4,0.4
			c-1.6,0.3-3.2,0.8-4.6,1.7H12.1c-1.4-0.9-3-1.4-4.6-1.7c-0.2-0.4-0.8-0.6-1.2-0.4C6.2,60.9,6,61,5.9,61.2
			c-1.2,0.1-2.4,0.7-3.1,1.7H1v-9c0.9-5.2,1.4-10.4,1.5-15.7v-30C4.3,5.3,7.7,1,12.3,1h140.4c4.5,0,8,4.3,9.8,7.2v30
			c0.1,5.3,0.6,10.5,1.5,15.7v9H162.1z M1,10.9C1.1,10.7,1.4,10,2,9v29.1c-0.1,4.2-0.4,8.3-1,12.4V10.9z M5.4,1h2.8
			C4.8,2.8,2.3,6.5,1,8.7V4.8C2,4.4,5,3.1,5.4,1 M159.5,1c0.4,2.1,3.4,3.4,4.4,3.8v4c-1.3-2.3-3.8-6-7.3-7.7L159.5,1z M163,9.1
			c0.5,0.9,0.9,1.6,1,1.9v39.7c-0.6-4.1-0.9-8.3-1-12.4V9.1z M164.6,3.9c-1.1-0.3-4.1-1.7-4.1-3.4V0H4.4v0.5c0,1.8-3,3.1-4.1,3.4
			L0,4v59.8h3.4l0.1-0.3C4.1,62.8,5,62.3,6,62.2c0.2,0.2,0.4,0.4,0.7,0.4c0.3,0,0.5-0.1,0.7-0.4c1.5,0.3,3,0.8,4.3,1.6l0.1,0.1H153
			l0.1-0.1c1.3-0.8,2.8-1.4,4.3-1.6c0.2,0.2,0.4,0.4,0.7,0.4s0.6-0.1,0.7-0.4c1,0.1,1.9,0.6,2.5,1.4l0.1,0.3h3.4V4L164.6,3.9z"/>
	</g>
</g>
</svg>
