<?xml version="1.0" encoding="utf-8"?>
<!-- Generator: Adobe Illustrator 24.1.2, SVG Export Plug-In . SVG Version: 6.00 Build 0)  -->
<svg version="1.1"
	 id="svg14" inkscape:version="0.92.3 (2405546, 2018-03-11)" sodipodi:docname="OGLvitalBottom.svg" xmlns:cc="http://creativecommons.org/ns#" xmlns:dc="http://purl.org/dc/elements/1.1/" xmlns:inkscape="http://www.inkscape.org/namespaces/inkscape" xmlns:rdf="http://www.w3.org/1999/02/22-rdf-syntax-ns#" xmlns:sodipodi="http://sodipodi.sourceforge.net/DTD/sodipodi-0.dtd" xmlns:svg="http://www.w3.org/2000/svg"
	 xmlns="http://www.w3.org/2000/svg" xmlns:xlink="http://www.w3.org/1999/xlink" x="0px" y="0px" viewBox="0 0 164.9 49.7"
	 style="enable-background:new 0 0 164.9 49.7;" xml:space="preserve">
<style type="text/css">
	.st0{fill:#1A1A1A;}
	.st1{fill:#333333;}
</style>
<sodipodi:namedview  bordercolor="#666666" borderopacity="1" gridtolerance="10" guidetolerance="10" id="namedview16" inkscape:current-layer="svg14" inkscape:pageopacity="0" inkscape:pageshadow="2" inkscape:window-height="480" inkscape:window-width="640" objecttolerance="10" pagecolor="#ffffff" showgrid="false">
	</sodipodi:namedview>
<g id="Layer_2">
	<g id="Layer_1-2">
		<path id="path8" class="st0" d="M5,49.2h155c0-2.5,4.4-3.9,4.4-3.9V0.5h-2.6c0,0-2.1,4-8.9,0H12c-6.8,4-8.9,0-8.9,0H0.5v44.8
			C0.5,45.3,5,46.7,5,49.2"/>
		<path id="path10" class="st1" d="M2.8,1c0.8,1,1.9,1.6,3.1,1.7c0.2,0.4,0.8,0.6,1.2,0.4C7.3,3,7.5,2.9,7.5,2.7
			c1.6-0.3,3.2-0.8,4.6-1.7h140.7c1.4,0.9,3,1.4,4.6,1.7c0.2,0.4,0.8,0.6,1.2,0.4c0.2-0.1,0.3-0.2,0.4-0.4c1.2-0.1,2.4-0.7,3.1-1.7
			h1.8v9c-0.9,5.2-1.4,10.4-1.5,15.7v15.8c-1.8,3-5.3,7.2-9.8,7.2H12.3c-4.5,0-8-4.3-9.8-7.2V25.7C2.4,20.4,1.9,15.2,1,10V1H2.8z
			 M163.9,38.8c-0.1,0.2-0.4,0.9-1,1.9v-15c0.1-4.2,0.4-8.3,1-12.4V38.8z M159.5,48.7h-2.8c3.5-1.8,6-5.5,7.3-7.7v4
			C162.9,45.3,159.9,46.6,159.5,48.7 M5.4,48.7C5,46.6,2,45.3,1,44.9V41c1.3,2.3,3.8,6,7.3,7.7H5.4z M2,40.6c-0.5-0.9-0.9-1.6-1-1.9
			V13.3c0.6,4.1,0.9,8.3,1,12.4V40.6z M0.3,45.8c1.1,0.3,4.1,1.7,4.1,3.4v0.5h156v-0.5c0-1.8,3-3.1,4.1-3.4l0.4-0.1V0h-3.4l-0.1,0.3
			c-0.6,0.8-1.5,1.4-2.5,1.5c-0.3-0.4-0.8-0.5-1.2-0.2c-0.1,0.1-0.1,0.1-0.2,0.2c-1.5-0.3-3-0.8-4.3-1.6L153.1,0H11.9l-0.1,0.1
			C10.4,0.9,9,1.4,7.4,1.7C7.1,1.3,6.6,1.2,6.2,1.5C6.1,1.6,6.1,1.6,6,1.7C5,1.6,4.1,1.1,3.5,0.3L3.4,0H0v45.7L0.3,45.8z"/>
	</g>
</g>
</svg>
